<?xml version="1.0" encoding="UTF-8"?>
<svg xmlns="http://www.w3.org/2000/svg" viewBox="0 0 256 256" role="img" aria-labelledby="title desc"><title id="title">AhorraEnCasaYa</title><desc id="desc">Símbolo de una casa eficiente con panel solar y energía limpia.</desc><defs><linearGradient id="g" x1="0" y1="0" x2="1" y2="1"><stop stop-color="#42a82d"/><stop offset="1" stop-color="#087443"/></linearGradient><linearGradient id="b" x1="0" y1="0" x2="1" y2="1"><stop stop-color="#20a8df"/><stop offset="1" stop-color="#1178b7"/></linearGradient></defs><rect width="256" height="256" rx="52" fill="#fff"/><circle cx="181" cy="54" r="25" fill="#ffbf16"/><g stroke="#ffbf16" stroke-width="6" stroke-linecap="round"><path d="M181 16V7"/><path d="M212 25l8-8"/><path d="M222 54h10"/><path d="M150 25l-8-8"/></g><path d="M27 128 102 62l55 48h48l-38 58H83z" fill="url(#g)"/><path d="M48 123l57-49 42 38-58 40z" fill="url(#b)" stroke="#fff" stroke-width="5"/><g stroke="#fff" stroke-width="4"><path d="M65 111l45-35"/><path d="M55 125l44-34"/><path d="M82 138l47-36"/></g><path d="M91 119h50v61H91z" fill="#fff"/><g fill="#0d6d47"><rect x="101" y="131" width="12" height="12" rx="2"/><rect x="120" y="131" width="12" height="12" rx="2"/><rect x="101" y="150" width="12" height="12" rx="2"/><rect x="120" y="150" width="12" height="12" rx="2"/></g><path d="M27 143c38 31 72 50 111 44 25-4 42-17 58-34" fill="none" stroke="#42a82d" stroke-width="17" stroke-linecap="round"/><path d="M179 159c-1-18 11-30 29-34 3 16-6 31-29 34Z" fill="#42a82d"/></svg>